<svg xmlns="http://www.w3.org/2000/svg" width="314.983" height="322.027" viewBox="0 0 314.983 322.027"><defs><style>.a{fill:#f0f0f5;}.b{fill:#811b3f;}.c{fill:#e03f3f;}.d{fill:#b42051;}.e{fill:#ce3f71;}.f{fill:#50505a;}.g{fill:#fbfeff;}.h{fill:#28add1;}</style></defs><path class="a" d="M155.363,75.642c85.808-.015,155.373-16.96,155.376-37.847S241.185-.015,155.376,0,0,16.96,0,37.847,69.555,75.656,155.363,75.642Z" transform="translate(310.088 322.027) rotate(-176.289)"/><g transform="translate(33.904)"><g transform="translate(0 0)"><path class="b" d="M88.957,59.035s1.363-3.464-7.382-7.59-32.49-18.721-36.114-13.1S51.227,55.8,62.077,61.1s20.94,5.06,21.738,4.515C84.633,65.088,88.957,59.035,88.957,59.035Z" transform="translate(103.369 35.064)"/><path class="b" d="M85.99,41.814S76.251,40.141,69.8,43.877c-6.428,3.736-16.5,6.072-17.784,7.473s14.862,14.5,15.563,18.235a5.591,5.591,0,0,1-2.026,5.6S49.448,73.672,48.513,73.2s-7.129-2.219-12.525-6.772c-5.376-4.554-7.363-4.9-14.278-12.98-6.9-8.076-12.057-11.229-11.356-16.483s-12.642-8.193,4.675-8.894,35.451-.817,42.717,1.168c7.246,1.985,9.486,2.919,14.745,4.437s3.74,1.4,8.785,2.452C86.3,37.183,86.77,37.416,87,38,87.237,38.623,85.99,41.814,85.99,41.814Z" transform="translate(180.491 26.111)"/><path class="c" d="M9.266,43.423S31.023,45.991,40.86,56.753C50.7,67.5,54.281,77.167,56.307,77.946s12.486,1.09,12.642-6.072S53.034,46.147,41.8,42.1,5.759,37.74,5.759,37.74Z" transform="translate(199.247 35.692)"/><path class="d" d="M60.6,26.188S54.187,1.96,51.031.091s-3.681,27.6-3.681,27.6Z" transform="translate(126.588 -0.006)"/><path class="d" d="M21.556,109.431s44,89.519,48.21,94.209c4.207,4.671,37.438,2.335,38.86,0,1.4-2.335-9.369-20.1-14.044-20.57s-14.512,7.473-15.914,6.072S41.638,91.08,41.638,91.08Z" transform="translate(128.677 86.155)"/><path class="d" d="M147.682,96.854s3.974,16.833-6.311,26.428c-10.3,9.594-23.18.934-23.18,2.8s7.714,38.59,9.837,41.159c2.1,2.569,6.545,3.269,7.714,6.772s-.7,4.9-6.311,3.5-10.07-3.5-11.239-6.305-14.862-45.149-15.33-49.586,3.389-32.246,5.493-35.769c2.1-3.5,3.506-12.163,9.837-12.163s13.577-.467,20.122,4.671C144.877,83.523,147.682,96.854,147.682,96.854Z" transform="translate(-69.306 69.698)"/><path class="e" d="M120.585,87.188s-10.772-23.275.331-35.9,31.5-3.639,39.366,3.308c7.85,6.947,10.772,5.235,9.72,1.148-1.052-4.106-11.765-13.914-21.173-18.2-9.428-4.281-13.031-2.51-13.031-2.51s5.844-1.635,9.6-.448,5.8,2.082,5.571-.136c-.214-2.219-12.466-9.789-25.342-7.4C112.754,29.468,105.2,43.246,105.2,43.246s2.357-5.313,4.032-7.356,3.818-2.744,2.941-3.561-11.746-1.265-17.024,11.346S103.4,73.157,103.4,73.157s-5.162-5.254-6.486-7.629c-1.344-2.374-5.4,4.632,4.168,15.471,5.668,6.422,16.635,13.408,16.635,13.408Z" transform="translate(-73.745 25.146)"/><path class="e" d="M165.357,24.94s25.283-3.892,36.191-2.335c10.928,1.557,15.6,5.76,17.94,7.317s4.129,9.983,20.2,8.582c16.089-1.4,31.069-4.982,33.718-3.581s6.7,14.81,4.207,21.037-4.831,9.2-7.48,9.672-10.148-2.958-16.07-.934-24.738,12.474-37.828,5.138c-13.109-7.317-16.537-11.7-16.849-11.229s9.993,15.588,18.1,24.481a46.118,46.118,0,0,0,21.68,12.786c2.649.623,5.3-.467,6.233,0s2.493,2.18,1.714,2.958-15.6.934-21.68-1.557S196.25,82.31,193.6,82.31s-8.59.389-11.161,28.685-7.48,66.4-18.953,78.329-27.621,15.432-27.621,15.432,9.6,50.734,14.278,66.633,10.3,27.128,12.174,27.128,6.779-1.868,11.473,0c4.675,1.868,12.174,10.061,8.668,12.63s-15.914,4.2-21.524,3.5-10.3-1.4-11.005-4.2-19.187-45.129-24.348-58.46c-5.142-13.331-13.109-45.363-13.109-45.363a77.062,77.062,0,0,1-29.257-22.2c-13.109-16.133-27.855-33.667-29.958-33.2s0,10.762,0,14.5,1.87,17.3-6.077,23.392c-7.967,6.072-18.485,7.473-23.881,3.97-5.376-3.5-11.005-7.473-11.239-5.138s4.441,44.9,7.967,52.135c3.506,7.239,12.174,8.426,13.343,13.564s-5.61,7.239-9.135,6.305c-3.506-.934-9.135-.934-9.6-3.269S3.625,228.148,1.989,205.943s-.7-30.164,0-31.1,12.642,2.1,13.343-10.762-5.61-28.763.467-41.393,28.088-16.133,34.867-13.1,11.239,21.5,38.626,17.534,47.275-32.5,51.95-37.637,9.837-7.959,11.005-10.061-.7-15.666-2.337-24.443a43.21,43.21,0,0,1-.351-15.082s-11.473-30.164-7.6-36.352C145.819-2.656,165.357,24.94,165.357,24.94Z" transform="translate(-1.08 2.488)"/><path class="a" d="M138.436,52.05S134.17,72.5,125.112,82.331s-18.1,12.319-26.374,9.049-14.667-4.671-18.719-6.85S75.5,79.061,75.5,79.061s15.973,4.534,31.458-3.114C122.463,68.3,138.436,52.05,138.436,52.05Z" transform="translate(-6.084 49.231)"/><path class="a" d="M126.3,63.262c8.123,3.269,9.993,7.161,12.33,8.738,2.337,1.557-8.434,8.115-15.914,5.293-7.48-2.8-12.642-8.738-8.434-12.63C118.509,60.771,126.3,63.262,126.3,63.262Z" transform="translate(-79.207 59.095)"/><path class="a" d="M92.384,55.311C85.391,52.625,75.3,74.46,70.957,80.473,66.633,86.487,57.4,89.62,56.679,95.361s17.609,17.651,29,.662C97.117,79.033,108.3,75.161,106.9,66.248,105.473,57.354,92.384,55.311,92.384,55.311Z" transform="translate(62.037 52.1)"/><path class="a" d="M65.894,14.24c-3.428.311-15.291,3.892-17,9.361-1.714,5.449-3.272,9.516,2.8,12.007s17.784,2.8,17.472-2.18-.312-10.606,2.649-13.564,5.337-3.853,2.8-5.6C72.108,12.469,65.894,14.24,65.894,14.24Z" transform="translate(111.492 12.721)"/><path class="d" d="M70.034,35.631c.117-.35,9.6-10.528,9.6-10.528S61.268,1.244,61.034,5.117C60.8,8.97,70.034,35.631,70.034,35.631Z" transform="translate(80.901 4.426)"/><path class="a" d="M20.464,42.247s-5.123-8.037-8.668-8.5S1.55,32.5.148,26.581s7.655-9.2,16.693-8.426c9.058.778,6.856,19.169,5.922,21.037A10.6,10.6,0,0,1,20.464,42.247Z" transform="translate(255.718 17.057)"/><path class="a" d="M48.355,24.659a3.272,3.272,0,1,0-3.272,3.269A3.266,3.266,0,0,0,48.355,24.659Z" transform="translate(149.62 20.224)"/><path class="d" d="M41.289,28.165s6.779-5.06,9.252-5.644c2.454-.584,6.779,0,7.012-2.335a5.567,5.567,0,0,0-5.376-5.955C48.321,14.1,39.42,18.9,38.6,22.638s-.409,5.955,1.149,6.188C41.289,29.06,41.289,28.165,41.289,28.165Z" transform="translate(147.453 13.449)"/><path class="a" d="M20.135,28.4a1.218,1.218,0,0,1,1.519.506l-.117-.175a1.1,1.1,0,0,1,0,1.557l.117-.175a1.259,1.259,0,0,1-1.383.564,1.2,1.2,0,0,1-.136-2.277Z" transform="translate(219.816 26.763)"/><path class="a" d="M20.709,31.45a1.168,1.168,0,1,1-1.169,1.168A1.2,1.2,0,0,1,20.709,31.45Z" transform="translate(219.476 29.742)"/><path class="a" d="M23.993,30.766a1.359,1.359,0,0,1,2.24.136.789.789,0,0,1,.1.175,1.321,1.321,0,0,1-.195,1.557,1.34,1.34,0,0,1-1.4.272c-.019,0-.019,0-.039-.019a.148.148,0,0,1-.078-.039c-.019,0-.039-.019-.058-.019.019,0,.019,0,.039.019A1.357,1.357,0,0,1,23.993,30.766Z" transform="translate(206.726 28.596)"/><path class="f" d="M95.344,40.734C102.473,38.184,109.6,40.091,115.8,44a62.279,62.279,0,0,1,7.986,5.916c2.318,2.024,4.772,4.4,5.785,7.376.1.253-.292.409-.429.175a23.935,23.935,0,0,0-6.506-7.259c-2.337-1.654-4.889-3.075-7.324-4.573a39.053,39.053,0,0,0-8.765-4.32A22.2,22.2,0,0,0,95.48,41.1.2.2,0,1,1,95.344,40.734Z" transform="translate(-35.628 37.428)"/><path class="f" d="M103.205,43.06c3.292.117,6.447,2.219,8.59,4.573.214.234-.136.584-.351.35-2.4-2.452-5.1-3.386-8.317-4.281A.327.327,0,0,1,103.205,43.06Z" transform="translate(-32.855 40.725)"/><path class="f" d="M131.675,38.493a32.289,32.289,0,0,1,15.252-14.829.249.249,0,0,1,.253.428A39.155,39.155,0,0,0,133.33,39.038,36.282,36.282,0,0,0,129.824,49.6c-.662,4.106-.214,8.076.156,12.182.039.448-.623.506-.76.1C126.766,54.567,128.266,45.3,131.675,38.493Z" transform="translate(-117.228 22.349)"/><path class="f" d="M142.978,27.72c.234-.428.877-.039.662.389-2.415,4.593-3.331,9.224-4.383,14.226a.379.379,0,0,1-.74-.1C138.518,37.217,140.583,32.06,142.978,27.72Z" transform="translate(-134.083 26.037)"/><path class="f" d="M89.176,28.485A48.611,48.611,0,0,1,100.668,41.1c2.922,4.515,5.142,9.847,4.948,15.316-.019.37-.623.487-.682.1a36.3,36.3,0,0,0-5.493-14.693c-3.1-4.709-7.285-8.29-10.83-12.591C88.28,28.855,88.708,28.135,89.176,28.485Z" transform="translate(1.413 26.849)"/><path class="f" d="M86.736,31.334a89.031,89.031,0,0,1,6.077,7.181A12.644,12.644,0,0,1,95.7,44.256c.078.448-.584.642-.682.195-1.052-4.982-6-8.641-8.843-12.669C85.9,31.431,86.444,31.022,86.736,31.334Z" transform="translate(16.008 29.527)"/><path class="f" d="M84.794,32.644a24.312,24.312,0,0,1,4.266,6.811c.156.35-.351.642-.506.292a41.927,41.927,0,0,0-4.129-6.831C84.268,32.7,84.619,32.449,84.794,32.644Z" transform="translate(25.956 30.805)"/><path class="b" d="M45.976,37.73l1.169.856S42.86,46.059,62.124,56.12s24.894,3.114,25.439,2.491.623-1.635.935-1.4a8.2,8.2,0,0,1,.974,1.187L85.05,66.24s-18.485-3.114-19.187-3.425S47.612,50.963,47.612,50.963l-2.9-9.536,1.071-3.308Z" transform="translate(102.854 35.683)"/><path class="g" d="M50.646,37.73s-4.831,10.217,17.472,20.3c22.3,10.1,26.218,0,26.218,0L89,71.494s-4.733,6.6-25.868-4.3C42,56.276,44.725,46.935,44.725,46.935Z" transform="translate(98.184 35.683)"/><path class="h" d="M53.61,54.632a2.8,2.8,0,1,0-2.8,2.8A2.8,2.8,0,0,0,53.61,54.632Z" transform="translate(132.308 49.022)"/><path class="h" d="M61.23,52.772a2.8,2.8,0,1,0-2.8,2.8A2.8,2.8,0,0,0,61.23,52.772Z" transform="translate(109.845 47.263)"/><path class="h" d="M68.2,48.982a2.8,2.8,0,1,0-2.8,2.8A2.8,2.8,0,0,0,68.2,48.982Z" transform="translate(89.298 43.677)"/><path class="h" d="M72.31,44a2.8,2.8,0,1,0-2.8,2.8A2.8,2.8,0,0,0,72.31,44Z" transform="translate(77.183 38.966)"/></g></g></svg>