<svg xmlns="http://www.w3.org/2000/svg" width="40.009" height="40" viewBox="0 0 40.009 40"><defs><style>.a{fill:#ce3f71;}.b{fill:#b42051;}.c{fill:#fff;}</style></defs><g transform="translate(20.004 20)"><g transform="translate(-20.004 -20)"><rect class="a" width="40.009" height="40" rx="9.221"/><g transform="translate(6.226 7.806)"><g transform="translate(0.009 0.559)"><path class="b" d="M41.411,51.794a.437.437,0,0,0,.559-.244,4.4,4.4,0,0,1,4.1-2.794,4.453,4.453,0,0,1,4.139,2.829.437.437,0,0,0,.4.279l.157-.035a.437.437,0,0,0,.244-.559,5.326,5.326,0,0,0-4.942-3.37,5.256,5.256,0,0,0-4.907,3.336A.437.437,0,0,0,41.411,51.794Z" transform="translate(-40.189 -47.9)"/><path class="b" d="M131.411,51.847l.157.035a.437.437,0,0,0,.4-.279,4.453,4.453,0,0,1,4.139-2.847,4.4,4.4,0,0,1,4.121,2.829.437.437,0,1,0,.8-.314,5.256,5.256,0,0,0-4.925-3.37,5.326,5.326,0,0,0-4.942,3.388A.437.437,0,0,0,131.411,51.847Z" transform="translate(-114.471 -47.9)"/><path class="b" d="M62.821,93.171a.437.437,0,0,0-.437.437,6.252,6.252,0,0,1-12.486.227c1.083-.7,5.972-4.034,6.619-6.863a4.226,4.226,0,0,0,.21-1.31,4.3,4.3,0,0,0-7.265-3.091A4.3,4.3,0,0,0,42.2,85.68a4.226,4.226,0,0,0,.21,1.31c.646,2.829,5.536,6.147,6.636,6.863a6.252,6.252,0,0,1-12.486-.227.437.437,0,0,0-.856,0,7.108,7.108,0,0,0,9.675,6.636,4.523,4.523,0,0,0,8.208,0,7.108,7.108,0,0,0,9.692-6.619.437.437,0,0,0-.454-.472ZM43.244,86.78v-.052a3.37,3.37,0,0,1-.175-1.048,3.428,3.428,0,0,1,6.077-2.2l.332.4.332-.4a3.423,3.423,0,0,1,4.3-.821A3.458,3.458,0,0,1,55.87,85.68a3.37,3.37,0,0,1-.175,1.048v.035c-.244,1.118-1.432,2.585-3.423,4.244a32.71,32.71,0,0,1-2.812,2.078,32.675,32.675,0,0,1-2.794-2.078C44.676,89.364,43.489,87.9,43.244,86.78Zm6.234,15.228a3.685,3.685,0,0,1-3.318-2.113,7.16,7.16,0,0,0,2.9-2.881v1.711a.437.437,0,0,0,.856,0V97.013a7.16,7.16,0,0,0,2.9,2.881,3.667,3.667,0,0,1-3.353,2.1Z" transform="translate(-35.7 -75.533)"/></g><path class="c" d="M41.411,48.612a.437.437,0,0,0,.559-.244,4.4,4.4,0,0,1,4.1-2.812,4.453,4.453,0,0,1,4.139,2.829.437.437,0,0,0,.4.279l.157-.035a.437.437,0,0,0,.244-.559,5.326,5.326,0,0,0-4.942-3.37,5.256,5.256,0,0,0-4.907,3.353A.437.437,0,0,0,41.411,48.612Z" transform="translate(-40.18 -44.7)"/><path class="c" d="M131.411,48.647l.157.035a.437.437,0,0,0,.4-.279,4.453,4.453,0,0,1,4.139-2.847,4.4,4.4,0,0,1,4.121,2.829.437.437,0,0,0,.8-.314,5.256,5.256,0,0,0-4.925-3.37,5.326,5.326,0,0,0-4.942,3.388A.437.437,0,0,0,131.411,48.647Z" transform="translate(-114.463 -44.7)"/><path class="c" d="M62.779,90.071a.437.437,0,0,0-.437.437,6.252,6.252,0,0,1-12.486.227c1.083-.7,5.972-4.034,6.619-6.863a4.226,4.226,0,0,0,.21-1.31,4.3,4.3,0,0,0-7.265-3.091,4.3,4.3,0,0,0-7.265,3.091,4.226,4.226,0,0,0,.21,1.31C43.011,86.7,47.9,90.019,49,90.735a6.252,6.252,0,0,1-12.486-.227.437.437,0,1,0-.856,0,7.108,7.108,0,0,0,9.675,6.636,4.523,4.523,0,0,0,8.208,0,7.108,7.108,0,0,0,9.692-6.619.437.437,0,0,0-.454-.454ZM43.2,83.662v-.035a3.37,3.37,0,0,1-.175-1.048,3.428,3.428,0,0,1,6.077-2.2l.332.4.332-.4a3.423,3.423,0,0,1,4.3-.821,3.458,3.458,0,0,1,1.781,3,3.37,3.37,0,0,1-.175,1.048v.035c-.244,1.118-1.432,2.585-3.423,4.244a32.708,32.708,0,0,1-2.812,2.078,32.673,32.673,0,0,1-2.794-2.078C44.635,86.264,43.447,84.78,43.2,83.662ZM49.437,98.89a3.685,3.685,0,0,1-3.318-2.113,7.16,7.16,0,0,0,2.9-2.881v1.711a.437.437,0,0,0,.856,0V93.9a7.16,7.16,0,0,0,2.9,2.881A3.667,3.667,0,0,1,49.42,98.89Z" transform="translate(-35.65 -72.416)"/></g></g></g></svg>